<svg aria-hidden="true" style="width:0;height:0;position:absolute;overflow:hidden" xmlns="http://www.w3.org/2000/svg"><defs><symbol id="icon-icon-green" viewBox="0 0 26 32"><path fill="#0fa6b0" style="fill:var(--color1,#0fa6b0)" d="M15.137 8.794c2.493-.086 3.928-5.067 6.166-3.967 2.103 1.034-1.203 4.753-.229 6.885.975 2.133 5.263 1.993 5.358 4.336.087 2.144-3.039 3-5.026 3.809-1.462.595-3.197-.519-4.638.124-1.833.819-2.406 3.955-4.414 3.918-1.816-.033-2.247-2.714-3.464-4.063-1.249-1.385-3.697-2.107-3.782-3.971-.087-1.909 2.707-2.689 3.399-4.47.764-1.964-1.231-5.381.731-6.151 2.18-.856 3.558 3.63 5.898 3.549z"/></symbol><symbol id="icon-git" viewBox="0 0 32 32"><path fill="#12af98" style="fill:var(--color2,#12af98)" d="M31.924 15.962c0 8.816-7.146 15.962-15.962 15.962S0 24.778 0 15.962C0 7.146 7.146 0 15.962 0s15.962 7.146 15.962 15.962z"/><path fill="#fff" style="fill:var(--color3,#fff)" d="m12.694 8.969 1.064-.304 1.672-.228h2.888l1.14.152 1.14.304.988-.608 1.292-.608 1.292-.38.836-.076.456 1.596.076 1.368-.304 1.216.076.228.608.76.608 1.368.38 1.368-.076 1.596-.304 2.052-.532 1.444-.912 1.444-1.064.836-1.292.608-1.672.456-1.368.304.684 1.14.228.836.076 1.216v2.736l.076 1.748.304.38-9.045.076.608-.456v-3.268l-.684.076-.988.076-.988-.076-.76-.228-.836-.38-.608-.684-.38-.456-.304-.76-.304-.608-.456-.608-.684-.684-.684-.456v-.38l.456-.152h.456l.836.38.608.38.456.532.532.608.608.76.684.532.608.228h1.064l.836-.152.608-.228.076-.684.304-.608.532-.836-1.14-.228-1.216-.304-1.064-.38-1.292-.76-1.216-1.292-.608-1.14-.38-1.444-.304-1.824.152-1.9.456-1.444.608-1.064.532-.608-.304-.836-.076-.912.076-.988.38-1.368.076-.076h.836l.684.152.608.228 1.14.608 1.14.684z"/></symbol><symbol id="icon-phone" viewBox="0 0 30 32"><path fill="#12af98" style="fill:var(--color2,#12af98)" d="m2.065 15.968-.645-1.806-.548-1.903-.355-1.355-.258-1.548-.194-1.903L0 5.614l.065-.935.226-.774.355-.677.839-.935.903-.839L3.485.648l.548-.355.613-.258h.774l.871.129.968.484.935.806.387.645.484 1.29.548 2.032.419 2.355v1.097l-.419.774-.645.774-.774.71-.741.613 9.233 11.686.774-.613 1.766-1.524 1.014-.566.773.039 3.407 1.204 3.827 2.047.56.534.533.71.209 1.129v.871l-.209.903-.533.774-.903 1-1.194 1-1.559.954-1.473.11-1.677-.11-2.774-.599-2.54-.871-2.557-1.194-2.468-1.363-2.241-1.895-1.129-1.065-1.129-1.161-2.579-3.057-1.679-2.653-.839-2.065z"/></symbol><symbol id="icon-linkidin" viewBox="0 0 32 32"><path fill="#12af98" style="fill:var(--color2,#12af98)" d="M28 0H4a4 4 0 0 0-4 4v24a4 4 0 0 0 4 4h24a4 4 0 0 0 4-4V4a4 4 0 0 0-4-4z"/><path fill="#fff" style="fill:var(--color3,#fff)" d="M6.709 25V11.364h3.782V25H6.709zm1.9-15.394a2.054 2.054 0 0 1-1.447-.559c-.397-.379-.595-.832-.595-1.358 0-.521.198-.968.595-1.341.402-.379.885-.568 1.447-.568s1.042.189 1.438.568c.402.373.604.82.604 1.341 0 .527-.201.98-.604 1.358a2.024 2.024 0 0 1-1.438.559zM17.391 17.116V25h-3.782V11.364h3.604v2.406h.16a3.808 3.808 0 0 1 1.518-1.882c.71-.467 1.571-.701 2.584-.701.947 0 1.773.207 2.477.621s1.252 1.006 1.642 1.776c.391.764.586 1.675.586 2.734V25h-3.782v-8.008c.006-.834-.207-1.486-.639-1.953-.432-.473-1.027-.71-1.785-.71-.509 0-.959.11-1.349.329a2.288 2.288 0 0 0-.905.959c-.213.414-.323.914-.328 1.5z"/></symbol><symbol id="icon-email" viewBox="0 0 49 32"><path fill="#12af98" style="fill:var(--color2,#12af98)" opacity=".82" d="M0 1.483C0 .664.664 0 1.483 0h45.591c.819 0 1.483.664 1.483 1.483v29.035c0 .819-.664 1.483-1.483 1.483H1.483A1.483 1.483 0 0 1 0 30.518V1.483z"/><path fill="none" stroke="#fff" style="stroke:var(--color3,#fff)" stroke-width="1.853" d="m1.483 1.39 18.471 15.073 1.483 1.174.587.525.865.494.71.309h1.266l.865-.309.463-.247 1.606-1.297 19.398-16M1.544 30.703l17.328-14.209M47.135 30.641 29.621 16.494"/></symbol><symbol id="icon-start" viewBox="0 0 33 32"><path fill="#ffcc48" style="fill:var(--color4,#ffcc48)" stroke-width="1.133" stroke="#000" d="m17.852 1.591 3.368 7.302a2.547 2.547 0 0 0 2.014 1.463l7.985.947c1.2.142 1.682 1.625.795 2.446l-5.904 5.459a2.548 2.548 0 0 0-.769 2.368l1.567 7.887c.235 1.185-1.026 2.102-2.08 1.512l-7.017-3.928a2.549 2.549 0 0 0-2.49 0l-7.017 3.928c-1.054.59-2.316-.326-2.08-1.512l1.567-7.887a2.55 2.55 0 0 0-.769-2.368l-5.904-5.459c-.887-.82-.405-2.303.795-2.446l7.985-.947a2.549 2.549 0 0 0 2.014-1.463l3.368-7.302c.506-1.097 2.065-1.097 2.572 0z"/></symbol><symbol id="icon-telegram" viewBox="0 0 34 32"><path fill="#12af98" style="fill:var(--color2,#12af98)" d="m2.317 14.564 1.423-.698 11.769-5.303 13.709-5.975 1.009-.414.543-.233h.491l.336.155.207.233.078.388-.078.75-.207.957-1.681 8.562-3.259 16.348-.466.647-.698.078-1.837-1.293-1.888-1.397-2.043-1.371-1.759-1.371-2.871 2.432-2.949 2.923-.595.078-.595-.466-.828-4.811-.957-5.458-6.855-3.518-.259-.776.259-.466z"/></symbol></defs></svg>