<svg aria-hidden="true" style="position: absolute; width: 0; height: 0; overflow: hidden;" version="1.1" xmlns="http://www.w3.org/2000/svg" xmlns:xlink="http://www.w3.org/1999/xlink">
<defs>
<symbol id="icon-icon-green" viewBox="0 0 26 32">
<path fill="#0fa6b0" style="fill: var(--color1, #0fa6b0)" d="M15.137 8.794c2.493-0.086 3.928-5.067 6.166-3.967 2.103 1.034-1.203 4.753-0.229 6.885 0.975 2.133 5.263 1.993 5.358 4.336 0.087 2.144-3.039 3-5.026 3.809-1.462 0.595-3.197-0.519-4.638 0.124-1.833 0.819-2.406 3.955-4.414 3.918-1.816-0.033-2.247-2.714-3.464-4.063-1.249-1.385-3.697-2.107-3.782-3.971-0.087-1.909 2.707-2.689 3.399-4.47 0.764-1.964-1.231-5.381 0.731-6.151 2.18-0.856 3.558 3.63 5.898 3.549z"></path>
</symbol>
<symbol id="icon-git" viewBox="0 0 32 32">
<path fill="#12af98" style="fill: var(--color2, #12af98)" d="M31.924 15.962c0 8.816-7.146 15.962-15.962 15.962s-15.962-7.146-15.962-15.962c0-8.816 7.146-15.962 15.962-15.962s15.962 7.146 15.962 15.962z"></path>
<path fill="#fff" style="fill: var(--color3, #fff)" d="M12.694 8.969l1.064-0.304 1.672-0.228h2.888l1.14 0.152 1.14 0.304 0.988-0.608 1.292-0.608 1.292-0.38 0.836-0.076 0.456 1.596 0.076 1.368-0.304 1.216 0.076 0.228 0.608 0.76 0.608 1.368 0.38 1.368-0.076 1.596-0.304 2.052-0.532 1.444-0.912 1.444-1.064 0.836-1.292 0.608-1.672 0.456-1.368 0.304 0.684 1.14 0.228 0.836 0.076 1.216v2.736l0.076 1.748 0.304 0.38-9.045 0.076 0.608-0.456v-3.268l-0.684 0.076-0.988 0.076-0.988-0.076-0.76-0.228-0.836-0.38-0.608-0.684-0.38-0.456-0.304-0.76-0.304-0.608-0.456-0.608-0.684-0.684-0.684-0.456v-0.38l0.456-0.152h0.456l0.836 0.38 0.608 0.38 0.456 0.532 0.532 0.608 0.608 0.76 0.684 0.532 0.608 0.228h1.064l0.836-0.152 0.608-0.228 0.076-0.684 0.304-0.608 0.532-0.836-1.14-0.228-1.216-0.304-1.064-0.38-1.292-0.76-1.216-1.292-0.608-1.14-0.38-1.444-0.304-1.824 0.152-1.9 0.456-1.444 0.608-1.064 0.532-0.608-0.304-0.836-0.076-0.912 0.076-0.988 0.38-1.368 0.076-0.076h0.836l0.684 0.152 0.608 0.228 1.14 0.608 1.14 0.684z"></path>
</symbol>
<symbol id="icon-phone" viewBox="0 0 30 32">
<path fill="#12af98" style="fill: var(--color2, #12af98)" d="M2.065 15.968l-0.645-1.806-0.548-1.903-0.355-1.355-0.258-1.548-0.194-1.903-0.065-1.839 0.065-0.935 0.226-0.774 0.355-0.677 0.839-0.935 0.903-0.839 1.097-0.806 0.548-0.355 0.613-0.258h0.774l0.871 0.129 0.968 0.484 0.935 0.806 0.387 0.645 0.484 1.29 0.548 2.032 0.419 2.355v1.097l-0.419 0.774-0.645 0.774-0.774 0.71-0.741 0.613 9.233 11.686 0.774-0.613 1.766-1.524 1.014-0.566 0.773 0.039 3.407 1.204 3.827 2.047 0.56 0.534 0.533 0.71 0.209 1.129v0.871l-0.209 0.903-0.533 0.774-0.903 1-1.194 1-1.559 0.954-1.473 0.11-1.677-0.11-2.774-0.599-2.54-0.871-2.557-1.194-2.468-1.363-2.241-1.895-1.129-1.065-1.129-1.161-2.579-3.057-1.679-2.653-0.839-2.065z"></path>
</symbol>
<symbol id="icon-linkidin" viewBox="0 0 32 32">
<path fill="#12af98" style="fill: var(--color2, #12af98)" d="M28 0h-24c-2.209 0-4 1.791-4 4v24c0 2.209 1.791 4 4 4h24c2.209 0 4-1.791 4-4v-24c0-2.209-1.791-4-4-4z"></path>
<path fill="#fff" style="fill: var(--color3, #fff)" d="M6.709 25v-13.636h3.782v13.636h-3.782zM8.609 9.606c-0.562 0-1.045-0.186-1.447-0.559-0.397-0.379-0.595-0.832-0.595-1.358 0-0.521 0.198-0.968 0.595-1.341 0.402-0.379 0.885-0.568 1.447-0.568s1.042 0.189 1.438 0.568c0.402 0.373 0.604 0.82 0.604 1.341 0 0.527-0.201 0.98-0.604 1.358-0.397 0.373-0.876 0.559-1.438 0.559z"></path>
<path fill="#fff" style="fill: var(--color3, #fff)" d="M17.391 17.116v7.884h-3.782v-13.636h3.604v2.406h0.16c0.302-0.793 0.808-1.42 1.518-1.882 0.71-0.467 1.571-0.701 2.584-0.701 0.947 0 1.773 0.207 2.477 0.621s1.252 1.006 1.642 1.776c0.391 0.764 0.586 1.675 0.586 2.734v8.682h-3.782v-8.008c0.006-0.834-0.207-1.486-0.639-1.953-0.432-0.473-1.027-0.71-1.785-0.71-0.509 0-0.959 0.11-1.349 0.329-0.385 0.219-0.686 0.539-0.905 0.959-0.213 0.414-0.323 0.914-0.328 1.5z"></path>
</symbol>
<symbol id="icon-email" viewBox="0 0 49 32">
<path fill="#12af98" style="fill: var(--color2, #12af98)" opacity="0.82" d="M0 1.483c0-0.819 0.664-1.483 1.483-1.483h45.591c0.819 0 1.483 0.664 1.483 1.483v29.035c0 0.819-0.664 1.483-1.483 1.483h-45.591c-0.819 0-1.483-0.664-1.483-1.483v-29.035z"></path>
<path fill="none" stroke="#fff" style="stroke: var(--color3, #fff)" stroke-linejoin="miter" stroke-linecap="butt" stroke-miterlimit="4" stroke-width="1.8533" d="M1.483 1.39l18.471 15.073 1.483 1.174 0.587 0.525 0.865 0.494 0.71 0.309h1.266l0.865-0.309 0.463-0.247 1.606-1.297 19.398-16"></path>
<path fill="none" stroke="#fff" style="stroke: var(--color3, #fff)" stroke-linejoin="miter" stroke-linecap="butt" stroke-miterlimit="4" stroke-width="1.8533" d="M1.544 30.703l17.328-14.209"></path>
<path fill="none" stroke="#fff" style="stroke: var(--color3, #fff)" stroke-linejoin="miter" stroke-linecap="butt" stroke-miterlimit="4" stroke-width="1.8533" d="M47.135 30.641l-17.514-14.147"></path>
</symbol>
<symbol id="icon-start" viewBox="0 0 33 32">
<path fill="#ffcc48" style="fill: var(--color4, #ffcc48)" stroke-linejoin="miter" stroke-linecap="butt" stroke-miterlimit="4" stroke-width="1.1327" stroke="#000" d="M17.852 1.591l3.368 7.302c0.371 0.805 1.134 1.359 2.014 1.463l7.985 0.947c1.2 0.142 1.682 1.625 0.795 2.446l-5.904 5.459c-0.651 0.602-0.942 1.499-0.769 2.368l1.567 7.887c0.235 1.185-1.026 2.102-2.080 1.512l-7.017-3.928c-0.773-0.433-1.716-0.433-2.49 0l-7.017 3.928c-1.054 0.59-2.316-0.326-2.080-1.512l1.567-7.887c0.173-0.869-0.119-1.766-0.769-2.368l-5.904-5.459c-0.887-0.82-0.405-2.303 0.795-2.446l7.985-0.947c0.88-0.104 1.643-0.659 2.014-1.463l3.368-7.302c0.506-1.097 2.065-1.097 2.572 0z"></path>
</symbol>
<symbol id="icon-telegram" viewBox="0 0 34 32">
<path fill="#12af98" style="fill: var(--color2, #12af98)" d="M2.317 14.564l1.423-0.698 11.769-5.303 13.709-5.975 1.009-0.414 0.543-0.233h0.491l0.336 0.155 0.207 0.233 0.078 0.388-0.078 0.75-0.207 0.957-1.681 8.562-3.259 16.348-0.466 0.647-0.698 0.078-1.837-1.293-1.888-1.397-2.043-1.371-1.759-1.371-2.871 2.432-2.949 2.923-0.595 0.078-0.595-0.466-0.828-4.811-0.957-5.458-6.855-3.518-0.259-0.776 0.259-0.466z"></path>
</symbol>
</defs>
</svg>
