<!-- Generated by IcoMoon.io -->
<svg version="1.1" xmlns="http://www.w3.org/2000/svg" width="49" height="32" viewBox="0 0 49 32">
<path fill="#12af98" opacity="0.82" d="M0 1.483c0-0.819 0.664-1.483 1.483-1.483h45.591c0.819 0 1.483 0.664 1.483 1.483v29.035c0 0.819-0.664 1.483-1.483 1.483h-45.591c-0.819 0-1.483-0.664-1.483-1.483v-29.035z"></path>
<path fill="none" stroke="#fff" stroke-linejoin="miter" stroke-linecap="butt" stroke-miterlimit="4" stroke-width="1.8533" d="M1.483 1.39l18.471 15.073 1.483 1.174 0.587 0.525 0.865 0.494 0.71 0.309h1.266l0.865-0.309 0.463-0.247 1.606-1.297 19.398-16"></path>
<path fill="none" stroke="#fff" stroke-linejoin="miter" stroke-linecap="butt" stroke-miterlimit="4" stroke-width="1.8533" d="M1.544 30.703l17.328-14.209"></path>
<path fill="none" stroke="#fff" stroke-linejoin="miter" stroke-linecap="butt" stroke-miterlimit="4" stroke-width="1.8533" d="M47.135 30.641l-17.514-14.147"></path>
</svg>
