<!-- Generated by IcoMoon.io -->
<svg version="1.1" xmlns="http://www.w3.org/2000/svg" width="32" height="32" viewBox="0 0 32 32">
<path fill="#12af98" d="M31.924 15.962c0 8.816-7.146 15.962-15.962 15.962s-15.962-7.146-15.962-15.962c0-8.816 7.146-15.962 15.962-15.962s15.962 7.146 15.962 15.962z"></path>
<path fill="#fff" d="M12.694 8.969l1.064-0.304 1.672-0.228h2.888l1.14 0.152 1.14 0.304 0.988-0.608 1.292-0.608 1.292-0.38 0.836-0.076 0.456 1.596 0.076 1.368-0.304 1.216 0.076 0.228 0.608 0.76 0.608 1.368 0.38 1.368-0.076 1.596-0.304 2.052-0.532 1.444-0.912 1.444-1.064 0.836-1.292 0.608-1.672 0.456-1.368 0.304 0.684 1.14 0.228 0.836 0.076 1.216v2.736l0.076 1.748 0.304 0.38-9.045 0.076 0.608-0.456v-3.268l-0.684 0.076-0.988 0.076-0.988-0.076-0.76-0.228-0.836-0.38-0.608-0.684-0.38-0.456-0.304-0.76-0.304-0.608-0.456-0.608-0.684-0.684-0.684-0.456v-0.38l0.456-0.152h0.456l0.836 0.38 0.608 0.38 0.456 0.532 0.532 0.608 0.608 0.76 0.684 0.532 0.608 0.228h1.064l0.836-0.152 0.608-0.228 0.076-0.684 0.304-0.608 0.532-0.836-1.14-0.228-1.216-0.304-1.064-0.38-1.292-0.76-1.216-1.292-0.608-1.14-0.38-1.444-0.304-1.824 0.152-1.9 0.456-1.444 0.608-1.064 0.532-0.608-0.304-0.836-0.076-0.912 0.076-0.988 0.38-1.368 0.076-0.076h0.836l0.684 0.152 0.608 0.228 1.14 0.608 1.14 0.684z"></path>
</svg>
