<!-- Generated by IcoMoon.io -->
<svg version="1.1" xmlns="http://www.w3.org/2000/svg" width="26" height="32" viewBox="0 0 26 32">
<path fill="#0fa6b0" d="M15.137 8.794c2.493-0.086 3.928-5.067 6.166-3.967 2.103 1.034-1.203 4.753-0.229 6.885 0.975 2.133 5.263 1.993 5.358 4.336 0.087 2.144-3.039 3-5.026 3.809-1.462 0.595-3.197-0.519-4.638 0.124-1.833 0.819-2.406 3.955-4.414 3.918-1.816-0.033-2.247-2.714-3.464-4.063-1.249-1.385-3.697-2.107-3.782-3.971-0.087-1.909 2.707-2.689 3.399-4.47 0.764-1.964-1.231-5.381 0.731-6.151 2.18-0.856 3.558 3.63 5.898 3.549z"></path>
</svg>
