<!-- Generated by IcoMoon.io -->
<svg version="1.1" xmlns="http://www.w3.org/2000/svg" width="32" height="32" viewBox="0 0 32 32">
<path fill="#12af98" d="M28 0h-24c-2.209 0-4 1.791-4 4v24c0 2.209 1.791 4 4 4h24c2.209 0 4-1.791 4-4v-24c0-2.209-1.791-4-4-4z"></path>
<path fill="#fff" d="M6.709 25v-13.636h3.782v13.636h-3.782zM8.609 9.606c-0.562 0-1.045-0.186-1.447-0.559-0.397-0.379-0.595-0.832-0.595-1.358 0-0.521 0.198-0.968 0.595-1.341 0.402-0.379 0.885-0.568 1.447-0.568s1.042 0.189 1.438 0.568c0.402 0.373 0.604 0.82 0.604 1.341 0 0.527-0.201 0.98-0.604 1.358-0.397 0.373-0.876 0.559-1.438 0.559z"></path>
<path fill="#fff" d="M17.391 17.116v7.884h-3.782v-13.636h3.604v2.406h0.16c0.302-0.793 0.808-1.42 1.518-1.882 0.71-0.467 1.571-0.701 2.584-0.701 0.947 0 1.773 0.207 2.477 0.621s1.252 1.006 1.642 1.776c0.391 0.764 0.586 1.675 0.586 2.734v8.682h-3.782v-8.008c0.006-0.834-0.207-1.486-0.639-1.953-0.432-0.473-1.027-0.71-1.785-0.71-0.509 0-0.959 0.11-1.349 0.329-0.385 0.219-0.686 0.539-0.905 0.959-0.213 0.414-0.323 0.914-0.328 1.5z"></path>
</svg>
