<!-- Generated by IcoMoon.io -->
<svg version="1.1" xmlns="http://www.w3.org/2000/svg" width="30" height="32" viewBox="0 0 30 32">
<path fill="#12af98" d="M2.065 15.968l-0.645-1.806-0.548-1.903-0.355-1.355-0.258-1.548-0.194-1.903-0.065-1.839 0.065-0.935 0.226-0.774 0.355-0.677 0.839-0.935 0.903-0.839 1.097-0.806 0.548-0.355 0.613-0.258h0.774l0.871 0.129 0.968 0.484 0.935 0.806 0.387 0.645 0.484 1.29 0.548 2.032 0.419 2.355v1.097l-0.419 0.774-0.645 0.774-0.774 0.71-0.741 0.613 9.233 11.686 0.774-0.613 1.766-1.524 1.014-0.566 0.773 0.039 3.407 1.204 3.827 2.047 0.56 0.534 0.533 0.71 0.209 1.129v0.871l-0.209 0.903-0.533 0.774-0.903 1-1.194 1-1.559 0.954-1.473 0.11-1.677-0.11-2.774-0.599-2.54-0.871-2.557-1.194-2.468-1.363-2.241-1.895-1.129-1.065-1.129-1.161-2.579-3.057-1.679-2.653-0.839-2.065z"></path>
</svg>
