<!-- Generated by IcoMoon.io -->
<svg version="1.1" xmlns="http://www.w3.org/2000/svg" width="33" height="32" viewBox="0 0 33 32">
<path fill="#ffcc48" stroke-linejoin="miter" stroke-linecap="butt" stroke-miterlimit="4" stroke-width="1.1327" stroke="#000" d="M17.852 1.591l3.368 7.302c0.371 0.805 1.134 1.359 2.014 1.463l7.985 0.947c1.2 0.142 1.682 1.625 0.795 2.446l-5.904 5.459c-0.651 0.602-0.942 1.499-0.769 2.368l1.567 7.887c0.235 1.185-1.026 2.102-2.080 1.512l-7.017-3.928c-0.773-0.433-1.716-0.433-2.49 0l-7.017 3.928c-1.054 0.59-2.316-0.326-2.080-1.512l1.567-7.887c0.173-0.869-0.119-1.766-0.769-2.368l-5.904-5.459c-0.887-0.82-0.405-2.303 0.795-2.446l7.985-0.947c0.88-0.104 1.643-0.659 2.014-1.463l3.368-7.302c0.506-1.097 2.065-1.097 2.572 0z"></path>
</svg>
